<svg width="20" height="20" viewBox="0 0 20 20" fill="none" xmlns="http://www.w3.org/2000/svg">
<path d="M10 0C4.48 0 0 4.48 0 10C0 15.52 4.48 20 10 20C15.52 20 20 15.52 20 10C20 4.48 15.52 0 10 0Z" fill="#FFE4E4"/>
<path fill-rule="evenodd" clip-rule="evenodd" d="M13.9395 6.86865C13.6606 6.58971 13.2083 6.58971 12.9293 6.86865L10.4037 9.39428L7.87857 6.86912C7.59962 6.59017 7.14736 6.59017 6.86841 6.86912C6.58947 7.14807 6.58947 7.60033 6.86841 7.87927L9.39357 10.4044L6.86843 12.9296C6.58949 13.2085 6.58949 13.6608 6.86843 13.9397C7.14738 14.2187 7.59964 14.2187 7.87859 13.9397L10.4037 11.4146L12.9293 13.9402C13.2083 14.2191 13.6605 14.2191 13.9395 13.9402C14.2184 13.6612 14.2184 13.209 13.9395 12.93L11.4139 10.4044L13.9395 7.87881C14.2184 7.59986 14.2184 7.1476 13.9395 6.86865Z" fill="#D74651"/>
</svg>